<mxfile host="app.diagrams.net" modified="2024-05-10T09:39:21.244Z" agent="Mozilla/5.0 (X11; Linux x86_64) AppleWebKit/537.36 (KHTML, like Gecko) Chrome/123.0.0.0 Safari/537.36" etag="l6J7-0WBatIxv6fPCkkF" version="24.3.1" type="github">
  <diagram name="Page-1" id="B4pRicdiO9W-TYG6Dq3W">
    <mxGraphModel dx="954" dy="571" grid="1" gridSize="10" guides="1" tooltips="1" connect="1" arrows="1" fold="1" page="1" pageScale="1" pageWidth="850" pageHeight="1100" math="0" shadow="0">
      <root>
        <mxCell id="0" />
        <mxCell id="1" parent="0" />
      </root>
    </mxGraphModel>
  </diagram>
</mxfile>
